<svg xmlns="http://www.w3.org/2000/svg" xmlns:xlink="http://www.w3.org/1999/xlink" width="197.543" height="193.664" viewBox="0 0 197.543 193.664">
  <defs>
    <filter id="Pfad_96" x="0" y="141.033" width="195.835" height="52.631" filterUnits="userSpaceOnUse">
      <feOffset input="SourceAlpha"/>
      <feGaussianBlur stdDeviation="0.5" result="blur"/>
      <feFlood flood-opacity="0.529"/>
      <feComposite operator="in" in2="blur"/>
      <feComposite in="SourceGraphic"/>
    </filter>
  </defs>
  <g id="Gruppe_42" data-name="Gruppe 42" transform="translate(-108.816 -46.373)">
    <g transform="matrix(1, 0, 0, 1, 108.82, 46.37)" filter="url(#Pfad_96)">
      <path id="Pfad_96-2" data-name="Pfad 96" d="M726.109,748.2a9.072,9.072,0,0,1-.135,2.659,2.149,2.149,0,0,1-1.167,1.339l-89.744,29.924a25.9,25.9,0,0,1-4.761.406,18.6,18.6,0,0,1-4.27-.672l-91.656-44a2.242,2.242,0,0,1-.953-1.609,14.486,14.486,0,0,1,0-3.344l92.961,45.1a10.332,10.332,0,0,0,4.008,1.177,12.725,12.725,0,0,0,4.389-.766Z" transform="translate(-531.82 -590.37)" fill="#a7948e"/>
    </g>
    <path id="Pfad_94" data-name="Pfad 94" d="M630.4,590.652c1.009-.627,2.851,0,2.851,0l91.524,38.787a10.234,10.234,0,0,1,3.46,2.715,7.255,7.255,0,0,1,1.12,3.781V745.654s.011,2.237-.94,2.886-2.866-.288-2.866-.288l-95.736-46.109-.6-108.983S629.394,591.279,630.4,590.652Z" transform="translate(-423 -544)" fill="#706865"/>
    <path id="Pfad_91" data-name="Pfad 91" d="M533.318,732.426c.109.9,1.344,1.789,1.344,1.789l90.825,43.715a24.406,24.406,0,0,0,4.7,1.624c1.514.183,4.944-1.123,4.944-1.123l86.4-28.72s4.974-1.26,5.2-2.179-4.409-3.1-4.409-3.1l-92.485-43.492-95.33,30.01S533.209,731.53,533.318,732.426Z" transform="translate(-423 -544)" fill="#e2e2e2"/>
    <g id="Pfad_92" data-name="Pfad 92" transform="translate(-423 -544)" fill="#d2cccc" stroke-linejoin="round">
      <path d="M601.495,739.221,578,746.879l24.237,11.549,22.5-8.238Z" stroke="none"/>
      <path d="M 601.4946899414063 739.22119140625 L 577.998779296875 746.8790893554688 L 602.2353515625 758.4282836914063 L 624.7384643554688 750.1902465820313 L 601.4946899414063 739.22119140625 M 601.4946899414063 739.0211791992188 C 601.52392578125 739.0211791992188 601.5531005859375 739.027587890625 601.580078125 739.0403442382813 L 624.8238525390625 750.0093994140625 C 624.8967895507813 750.0438232421875 624.94189453125 750.11865234375 624.938232421875 750.19921875 C 624.9346313476563 750.2798461914063 624.8829345703125 750.350341796875 624.8071899414063 750.3780517578125 L 602.3040771484375 758.6160888671875 C 602.2818603515625 758.624267578125 602.2586059570313 758.6282958984375 602.2353515625 758.6282958984375 C 602.2058715820313 758.6282958984375 602.1764526367188 758.6217651367188 602.1492919921875 758.6088256835938 L 577.9127197265625 747.0596313476563 C 577.8388671875 747.0244140625 577.7938842773438 746.9478149414063 577.7991943359375 746.8661499023438 C 577.8045043945313 746.7844848632813 577.8590087890625 746.7142944335938 577.9368286132813 746.6889038085938 L 601.4327392578125 739.031005859375 C 601.452880859375 739.0244750976563 601.4738159179688 739.0211791992188 601.4946899414063 739.0211791992188 Z" stroke="none" fill="rgba(0,0,0,0.28)"/>
    </g>
    <path id="Pfad_93" data-name="Pfad 93" d="M710.144,745.147l-45.706,15.14-77.5-36.7,45.384-15.176Z" transform="translate(-423 -544)" fill="#57524f" stroke="#fff" stroke-width="0.3"/>
    <path id="Pfad_95" data-name="Pfad 95" d="M630.438,590.652c1.009-.627,2.817,0,2.817,0l91.524,38.787a10.234,10.234,0,0,1,3.46,2.715,7.255,7.255,0,0,1,1.12,3.781l-.024,100.953s.011,2.237-.94,2.886-2.866-.288-2.866-.288L629.748,695.3,629.22,593.16S629.429,591.279,630.438,590.652Z" transform="translate(-423 -544)" fill="#221d1a"/>
    <path id="Pfad_98" data-name="Pfad 98" d="M-.715-.87a5.929,5.929,0,0,1,3,.281L83.751,33.516s3.693,1.417,5.183,4.244,1.044,6.846,1.044,6.846l-.668,83.174s.132,2.667-1.361,3.555a57.61,57.61,0,0,1-6.459,2.58L0,92.863-4.241.558A12.577,12.577,0,0,1-.715-.87Z" transform="translate(197 60)" fill="#e1dbd9"/>
    <path id="Pfad_97" data-name="Pfad 97" d="M.848-1.621c.963-.4,2.9.848,2.9.848l80,34.289a8.71,8.71,0,0,1,4.9,3.774c1.49,2.827,1.065,7.533,1.065,7.533L89.1,127.808s-.138,2.845-1.631,3.733-4.342-.182-4.342-.182L2.491,94.016A3.606,3.606,0,0,1,.67,92.631,6.546,6.546,0,0,1,0,89.946L-.1.844S-.115-1.217.848-1.621Z" transform="translate(192 62)" fill="#e9e9e9"/>
    <path id="Pfad_104" data-name="Pfad 104" d="M616.886,607.109v7.622l83.345,36.619v-7.622Z" transform="translate(-423 -544)" fill="#dcdcdc"/>
    <path id="Pfad_119" data-name="Pfad 119" d="M.494-1.651c.6-.254,1.82.532,1.82.532L52.514,20.4a5.466,5.466,0,0,1,3.072,2.368,10.378,10.378,0,0,1,.668,4.727l-.382,52.072s-.087,1.785-1.024,2.342-2.725-.114-2.725-.114L1.524,58.36a2.263,2.263,0,0,1-1.143-.869,4.108,4.108,0,0,1-.422-1.685L-.1-.1S-.111-1.4.494-1.651Z" transform="translate(206 89)" fill="#ebd5d5"/>
    <path id="Pfad_120" data-name="Pfad 120" d="M1660.011-64.283l32.1,48.964Z" transform="translate(-1442.539 172.255)" fill="none" stroke="#f17070" stroke-linejoin="round" stroke-width="5"/>
    <path id="Pfad_121" data-name="Pfad 121" d="M1657.648-70.65l23.552,29.8Z" transform="matrix(-0.105, 0.995, -0.995, -0.105, 352.577, -1534.222)" fill="none" stroke="#f17070" stroke-linejoin="round" stroke-width="5"/>
  </g>
</svg>
