<svg xmlns="http://www.w3.org/2000/svg" xmlns:xlink="http://www.w3.org/1999/xlink" width="138" height="93" viewBox="0 0 138 93">
  <defs>
    <filter id="Pfad_1" x="0" y="35" width="58" height="58" filterUnits="userSpaceOnUse">
      <feOffset dy="-2" input="SourceAlpha"/>
      <feGaussianBlur stdDeviation="3" result="blur"/>
      <feFlood flood-opacity="0.129"/>
      <feComposite operator="in" in2="blur"/>
      <feComposite in="SourceGraphic"/>
    </filter>
    <filter id="Pfad_4" x="80" y="0" width="58" height="58" filterUnits="userSpaceOnUse">
      <feOffset dy="3" input="SourceAlpha"/>
      <feGaussianBlur stdDeviation="3" result="blur-2"/>
      <feFlood flood-opacity="0.129"/>
      <feComposite operator="in" in2="blur-2"/>
      <feComposite in="SourceGraphic"/>
    </filter>
  </defs>
  <g id="Gruppe_15" data-name="Gruppe 15" transform="translate(-6 -29)">
    <g id="Logo-Big">
      <g id="Logo-Big-2" data-name="Logo-Big">
        <g id="Gruppe_12" data-name="Gruppe 12" transform="translate(7 6)">
          <path id="Pfad_3" data-name="Pfad 3" d="M40,40V0H0Z" transform="translate(88 29) rotate(90)" fill="#003b8e"/>
          <path id="Pfad_2" data-name="Pfad 2" d="M40,40V0H0Z" transform="translate(48 109) rotate(-90)" fill="#003b8e"/>
        </g>
        <g id="Gruppe_13" data-name="Gruppe 13" transform="translate(7 6)">
          <g transform="matrix(1, 0, 0, 1, -1, 23)" filter="url(#Pfad_1)">
            <path id="Pfad_1-2" data-name="Pfad 1" d="M57.2,113.962v-40h-40Z" transform="translate(-8.2 -27.96)" fill="#1564bf"/>
          </g>
          <path id="Rechteck_1" data-name="Rechteck 1" d="M2,0H38a2,2,0,0,1,2,2V40a0,0,0,0,1,0,0H0a0,0,0,0,1,0,0V2A2,2,0,0,1,2,0Z" transform="translate(8 29)" fill="#1564bf"/>
        </g>
        <g id="Gruppe_14" data-name="Gruppe 14" transform="translate(7 6)">
          <g transform="matrix(1, 0, 0, 1, -1, 23)" filter="url(#Pfad_4)">
            <path id="Pfad_4-2" data-name="Pfad 4" d="M57.2,113.962v-40h-40Z" transform="translate(146.2 119.96) rotate(180)" fill="#1564bf"/>
          </g>
          <path id="Pfad_5" data-name="Pfad 5" d="M0,0H40V38a2,2,0,0,1-2,2H5a5,5,0,0,1-5-5Z" transform="translate(88 69)" fill="#1564bf"/>
        </g>
      </g>
      <path id="Pfad_106" data-name="Pfad 106" d="M-.5.438,119.474.48" transform="translate(15.5 74.5)" fill="none" stroke="#fff" stroke-width="0.2"/>
    </g>
  </g>
</svg>
